<svg version="1" xmlns="http://www.w3.org/2000/svg" width="666.667" height="666.667" viewBox="0 0 500.000000 500.000000"><path d="M409.3 6.6c-10.2 9.9-26.4 23.7-36.8 31.4-3.3 2.5-6.2 4.7-6.5 5.1-.3.3-6 4.2-12.8 8.7-31.4 21-63.5 37-100.2 49.9-12.2 4.3-38 11.6-44.9 12.8-1.9.3-3.7.8-4.1 1-.4.2-2.2.7-4.1 1-1.9.3-4.1.8-4.9 1-.8.2-3.1.7-5 1-1.9.3-3.5.7-3.7.8-.1.2.9 6.3 2.2 13.7 3.3 18.9 3.4 19.9 4.1 25l.6 4.5-3.2-6.5c-1.7-3.6-5-10.3-7.3-15-12.3-25.2-32.6-57.8-51.6-83-5.3-7-19.1-24-21.1-26-.3-.3-2.5-2.8-4.9-5.5-2.4-2.8-8.4-9.1-13.2-14.2L83 3.1 71 15.3C64.3 22 45.9 40.6 29.9 56.6L1 85.7l6.6 6.9c30.5 31.9 54.8 67 74 106.9 8.8 18.3 21.5 50.3 23.9 60.5.2.8 1.5 5.3 2.9 10 2.8 9.9 5.9 22.8 8.4 35.5 2 9.8 1.6 9.5 9 8.1 1.7-.3 4.7-.8 6.5-1.1 1.7-.3 3.9-.8 4.7-1 .8-.2 3.3-.6 5.5-1 4.4-.6 6.7-1 13.8-2.3 2.6-.5 4.7-.8 4.7-.6 0 .2-6 3.3-13.3 6.8-49.2 24-96.4 56.7-134.6 93.2L1.7 418.5l28.4 28.2c15.6 15.5 33.9 33.6 40.6 40.2C77.4 493.6 83.4 499 84 499c.6 0 2.8-1.7 4.9-3.8 44.6-43.7 101.3-78 163.4-98.6 12.3-4.1 33-10 39-11.1 1.2-.3 6.8-1.5 12.4-2.6 9.4-2 10.2-2.4 9.8-4.3-.2-1.2-1.6-9.1-3-17.6-1.4-8.5-2.8-16.5-3-17.8-.2-1.2-.6-3.2-1-4.5-.3-1.2 3.2 5.2 7.8 14.3 9.8 19.6 14.1 27.4 21.4 39.5 3 4.9 5.9 9.9 6.6 11 3.1 5.1 18.7 27.9 24.7 36 15.2 20.4 47.2 56.5 50.2 56.5.5 0 4.9-4.2 9.9-9.3 5-5 23.2-23.4 40.5-40.8l31.4-31.6-4.7-5c-8-8.3-15.6-16.6-19.8-21.7-2.2-2.7-4.5-5.4-5-6-4.1-4.3-21.6-29-28.9-40.8-9.8-15.6-24.8-44.5-31.4-60.3-8.7-20.8-17.6-48.2-21.6-66-.1-.6-1.2-5.3-2.4-10.5s-2.5-11.5-3-14c-.5-3-1.3-4.5-2.3-4.4-.8.1-5.7.9-10.9 1.8-5.2 1-10.8 1.9-12.5 2.2-1.6.3-3.7.7-4.5.9-.8.3-3.1.7-5 .9-2 .3-4.9.8-6.5 1.1-1.7.4 5.3-3.5 15.5-8.7 20.2-10.3 23-11.8 40-22.1 33.1-20.1 63.9-43.6 90.9-69.4l11.4-10.9-11.9-11.8c-6.5-6.5-25-24.8-41.1-40.7L416.2 0l-6.9 6.6zM271.5 228.5c2.1 9.9 8.4 35.2 9.6 38.2.7 2 .2 2.3-10.9 4.8-11 2.5-28.7 7.1-36 9.4-2.4.7-3.4.7-3.7-.2-.3-1.1-5-22.1-6-27.2-.3-1.1-1.7-6.6-3.3-12.2l-2.9-10.2 3.1-.6c6.4-1.3 42.2-10.4 44.6-11.3 3.1-1.2 3.3-.9 5.5 9.3z"/></svg>